<?xml version="1.0" encoding="utf-8"?>
<!-- Generator: Adobe Illustrator 12.0.0, SVG Export Plug-In . SVG Version: 6.00 Build 51448)  -->
<!DOCTYPE svg PUBLIC "-//W3C//DTD SVG 1.1//EN" "http://www.w3.org/Graphics/SVG/1.1/DTD/svg11.dtd" [
	<!ENTITY ns_svg "http://www.w3.org/2000/svg">
	<!ENTITY ns_xlink "http://www.w3.org/1999/xlink">
]>
<svg  version="1.1" id="Layer_2" xmlns="&ns_svg;" xmlns:xlink="&ns_xlink;" width="246.957" height="368.928"
	 viewBox="0 0 246.957 368.928" overflow="visible" enable-background="new 0 0 246.957 368.928" xml:space="preserve">
<g>
	<g>
		<line fill="none" stroke="#000000" stroke-width="5" x1="75.523" y1="13.202" x2="98.406" y2="34.491"/>
		<circle fill="#FF0000" stroke="#FF0000" stroke-width="4" cx="71.527" cy="10.005" r="4.478"/>
	</g>
	<g>
		<g id="XMLID_3_">
			<g>
				<linearGradient id="XMLID_14_" gradientUnits="userSpaceOnUse" x1="156.2305" y1="19.9473" x2="243.8936" y2="19.9473">
					<stop  offset="0" style="stop-color:#FFFFFF"/>
					<stop  offset="0.1685" style="stop-color:#0B0B0B"/>
					<stop  offset="0.2637" style="stop-color:#7F7F7F"/>
					<stop  offset="0.3956" style="stop-color:#8E8E8E"/>
					<stop  offset="0.5421" style="stop-color:#636363"/>
					<stop  offset="0.6264" style="stop-color:#5F5F5F"/>
					<stop  offset="0.7179" style="stop-color:#EAEAEA"/>
					<stop  offset="0.7912" style="stop-color:#FFFFFF"/>
					<stop  offset="1" style="stop-color:#000000"/>
				</linearGradient>
				<polygon fill="url(#XMLID_14_)" points="243.894,1.921 241.141,23.713 157.842,37.973 156.23,37.889 158.227,16.125 
					158.003,15.321 				"/>
				<linearGradient id="XMLID_15_" gradientUnits="userSpaceOnUse" x1="154.1846" y1="41.9302" x2="241.1406" y2="41.9302">
					<stop  offset="0" style="stop-color:#FFFFFF"/>
					<stop  offset="0.1685" style="stop-color:#0B0B0B"/>
					<stop  offset="0.2637" style="stop-color:#7F7F7F"/>
					<stop  offset="0.3956" style="stop-color:#8E8E8E"/>
					<stop  offset="0.5421" style="stop-color:#636363"/>
					<stop  offset="0.6264" style="stop-color:#5F5F5F"/>
					<stop  offset="0.7179" style="stop-color:#EAEAEA"/>
					<stop  offset="0.7912" style="stop-color:#FFFFFF"/>
					<stop  offset="1" style="stop-color:#000000"/>
				</linearGradient>
				<polygon fill="url(#XMLID_15_)" points="241.141,23.713 238.389,45.58 154.656,60.148 154.185,60.12 156.23,37.889 
					157.842,37.973 				"/>
				<linearGradient id="XMLID_16_" gradientUnits="userSpaceOnUse" x1="151.916" y1="65.1802" x2="238.3887" y2="65.1802">
					<stop  offset="0" style="stop-color:#FFFFFF"/>
					<stop  offset="0.1685" style="stop-color:#0B0B0B"/>
					<stop  offset="0.2637" style="stop-color:#7F7F7F"/>
					<stop  offset="0.3956" style="stop-color:#8E8E8E"/>
					<stop  offset="0.5421" style="stop-color:#636363"/>
					<stop  offset="0.6264" style="stop-color:#5F5F5F"/>
					<stop  offset="0.7179" style="stop-color:#EAEAEA"/>
					<stop  offset="0.7912" style="stop-color:#FFFFFF"/>
					<stop  offset="1" style="stop-color:#000000"/>
				</linearGradient>
				<polygon fill="url(#XMLID_16_)" points="154.656,60.148 238.389,45.58 235.276,70.277 151.916,84.78 154.185,60.12 				"/>
			</g>
			<g>
				<polyline fill="none" stroke="#000000" stroke-width="3" points="158.227,16.125 156.23,37.889 154.185,60.12 151.916,84.78 
					151.755,86.565 				"/>
				<polyline fill="none" stroke="#000000" stroke-width="3" points="157.297,15.434 158.003,15.321 243.894,1.921 246.707,1.482 
									"/>
				<polyline fill="none" stroke="#000000" stroke-width="3" points="157.842,37.973 241.141,23.713 242.765,23.433 				"/>
				<polyline fill="none" stroke="#000000" stroke-width="3" points="154.656,60.148 238.389,45.58 241.476,45.047 				"/>
				<polyline fill="none" stroke="#000000" stroke-width="3" points="148.457,85.378 151.916,84.78 235.276,70.277 				"/>
				<polyline fill="none" stroke="#000000" stroke-width="3" points="244.005,1.005 243.894,1.921 241.141,23.713 238.389,45.58 
					235.276,70.277 				"/>
			</g>
		</g>
	</g>
	<g>
		<g id="XMLID_4_">
			<g>
				<polygon fill="#00BBDF" points="175.697,51.226 149.647,56.985 148.117,58.655 147.317,57.925 105.978,12.496 134.587,6.055 
									"/>
				<polygon fill="#00BBDF" points="175.697,51.226 176.527,51.045 174.888,76.215 146.377,107.315 120.057,113.115 
					119.537,112.535 121.037,89.436 121.127,88.085 148.117,58.655 149.647,56.985 				"/>
				<polygon fill="#00BBDF" points="148.117,58.655 121.127,88.085 121.037,89.436 121.027,89.436 79.688,44.015 105.978,12.496 
					147.317,57.925 				"/>
				<polygon fill="#00BBDF" points="121.037,89.436 119.537,112.535 79.527,68.575 79.688,44.015 121.027,89.436 				"/>
			</g>
			<g>
				<line fill="none" stroke="#000000" stroke-width="3" x1="105.978" y1="12.496" x2="147.317" y2="57.925"/>
				<polygon fill="none" stroke="#000000" stroke-width="3" points="121.037,89.436 121.127,88.085 148.117,58.655 149.647,56.985 
					175.697,51.226 176.527,51.045 174.888,76.215 146.377,107.315 120.057,113.115 119.487,113.246 119.537,112.535 				"/>
				<polyline fill="none" stroke="#000000" stroke-width="3" points="134.587,6.055 175.697,51.226 175.928,51.485 				"/>
				<line fill="none" stroke="#000000" stroke-width="3" x1="79.688" y1="44.015" x2="121.027" y2="89.436"/>
				<polyline fill="none" stroke="#000000" stroke-width="3" points="79.527,68.575 119.537,112.535 120.057,113.115 
					120.867,114.005 				"/>
				<line fill="none" stroke="#000000" stroke-width="3" x1="105.978" y1="12.496" x2="134.587" y2="6.055"/>
				<line fill="none" stroke="#000000" stroke-width="3" x1="79.688" y1="44.015" x2="105.978" y2="12.496"/>
				<line fill="none" stroke="#000000" stroke-width="3" x1="79.527" y1="68.575" x2="79.688" y2="44.015"/>
			</g>
		</g>
	</g>
	<g>
		<g id="XMLID_5_">
			<g>
				<linearGradient id="XMLID_17_" gradientUnits="userSpaceOnUse" x1="8.5244" y1="43.5957" x2="101.7104" y2="43.5957">
					<stop  offset="0" style="stop-color:#FFFFFF"/>
					<stop  offset="0.1685" style="stop-color:#0B0B0B"/>
					<stop  offset="0.2637" style="stop-color:#7F7F7F"/>
					<stop  offset="0.3956" style="stop-color:#8E8E8E"/>
					<stop  offset="0.5421" style="stop-color:#636363"/>
					<stop  offset="0.6264" style="stop-color:#5F5F5F"/>
					<stop  offset="0.7179" style="stop-color:#EAEAEA"/>
					<stop  offset="0.7912" style="stop-color:#FFFFFF"/>
					<stop  offset="1" style="stop-color:#000000"/>
				</linearGradient>
				<polygon fill="url(#XMLID_17_)" points="101.71,24.001 98.785,47.689 10.237,63.19 8.524,63.098 10.659,39.441 10.422,38.568 
									"/>
				<linearGradient id="XMLID_18_" gradientUnits="userSpaceOnUse" x1="6.3496" y1="67.4917" x2="98.7847" y2="67.4917">
					<stop  offset="0" style="stop-color:#FFFFFF"/>
					<stop  offset="0.1685" style="stop-color:#0B0B0B"/>
					<stop  offset="0.2637" style="stop-color:#7F7F7F"/>
					<stop  offset="0.3956" style="stop-color:#8E8E8E"/>
					<stop  offset="0.5421" style="stop-color:#636363"/>
					<stop  offset="0.6264" style="stop-color:#5F5F5F"/>
					<stop  offset="0.7179" style="stop-color:#EAEAEA"/>
					<stop  offset="0.7912" style="stop-color:#FFFFFF"/>
					<stop  offset="1" style="stop-color:#000000"/>
				</linearGradient>
				<polygon fill="url(#XMLID_18_)" points="98.785,47.689 95.859,71.458 6.851,87.294 6.35,87.263 8.524,63.098 10.237,63.19 				
					"/>
				<linearGradient id="XMLID_19_" gradientUnits="userSpaceOnUse" x1="3.938" y1="92.7637" x2="95.8594" y2="92.7637">
					<stop  offset="0" style="stop-color:#FFFFFF"/>
					<stop  offset="0.1685" style="stop-color:#0B0B0B"/>
					<stop  offset="0.2637" style="stop-color:#7F7F7F"/>
					<stop  offset="0.3956" style="stop-color:#8E8E8E"/>
					<stop  offset="0.5421" style="stop-color:#636363"/>
					<stop  offset="0.6264" style="stop-color:#5F5F5F"/>
					<stop  offset="0.7179" style="stop-color:#EAEAEA"/>
					<stop  offset="0.7912" style="stop-color:#FFFFFF"/>
					<stop  offset="1" style="stop-color:#000000"/>
				</linearGradient>
				<polygon fill="url(#XMLID_19_)" points="6.851,87.294 95.859,71.458 92.551,98.305 3.938,114.069 6.35,87.263 				"/>
			</g>
			<g>
				<polyline fill="none" stroke="#000000" stroke-width="3" points="10.659,39.441 8.524,63.098 6.35,87.263 3.938,114.069 
					3.767,116.01 				"/>
				<polyline fill="none" stroke="#000000" stroke-width="3" points="9.658,38.689 10.422,38.568 101.71,24.001 104.702,23.524 				
					"/>
				<polyline fill="none" stroke="#000000" stroke-width="3" points="10.237,63.19 98.785,47.689 100.511,47.384 				"/>
				<polyline fill="none" stroke="#000000" stroke-width="3" points="6.851,87.294 95.859,71.458 99.141,70.879 				"/>
				<polyline fill="none" stroke="#000000" stroke-width="3" points="0.261,114.72 3.938,114.069 92.551,98.305 				"/>
				<polyline fill="none" stroke="#000000" stroke-width="3" points="101.829,23.006 101.71,24.001 98.785,47.689 95.859,71.458 
					92.551,98.305 				"/>
			</g>
		</g>
	</g>
	<g>
		<path stroke="#000000" d="M123.571,98.077c28.832-28.839,32.652-28.865,61.11-0.413"/>
		<g>
			<g id="XMLID_6_">
				<g>
					<path fill="#00FFDE" d="M153.833,88.297c17.098-0.284,31.027,5.839,31.112,13.666c0.075,7.838-13.726,14.414-30.823,14.698
						c-17.108,0.284-31.039-5.838-31.114-13.676C122.923,95.157,136.725,88.581,153.833,88.297z"/>
				</g>
				<g>
					<path fill="none" stroke="#000000" stroke-width="3" d="M123.008,102.984c-0.085-7.827,13.716-14.403,30.825-14.688
						c17.098-0.284,31.027,5.839,31.112,13.666c0.075,7.838-13.726,14.414-30.823,14.698
						C137.014,116.945,123.083,110.822,123.008,102.984z"/>
				</g>
			</g>
			<line fill="none" stroke="#000000" stroke-width="4" x1="153.021" y1="93.957" x2="152.885" y2="119.895"/>
			<path fill="#FF0000" stroke="#FF0000" stroke-width="4" d="M148.824,127.795c-1.603-1.935-1.243-4.754,0.803-6.295
				c2.045-1.541,5.001-1.22,6.604,0.716c1.602,1.935,1.242,4.752-0.802,6.292C153.384,130.049,150.427,129.731,148.824,127.795z"/>
		</g>
	</g>
	<line fill="#FFFFFF" stroke="#000000" stroke-width="2" x1="130.527" y1="53.005" x2="115.527" y2="71.005"/>
	<line fill="#FFFFFF" stroke="#000000" stroke-width="2" x1="119.527" y1="40.005" x2="104.527" y2="58.005"/>
	<line fill="#FFFFFF" stroke="#000000" stroke-width="2" x1="125.527" y1="47.005" x2="110.527" y2="65.005"/>
	
		<ellipse transform="matrix(0.6671 0.745 -0.745 0.6671 62.6711 -92.2297)" fill="none" stroke="#000000" stroke-width="2" cx="134.527" cy="24.005" rx="10.983" ry="7.421"/>
</g>
<g>
	<g id="XMLID_1_">
		<g>
			<polygon fill="#FFFF00" points="148.527,244.005 140.527,267.005 144.527,271.005 138.527,300.005 137.527,277.005 
				131.527,272.005 137.527,251.005 126.527,246.005 146.527,215.005 139.527,243.005 			"/>
		</g>
		<g>
			<line fill="none" stroke="#FFFF00" stroke-width="3" x1="146.527" y1="215.005" x2="126.527" y2="246.005"/>
			<line fill="none" stroke="#FFFF00" stroke-width="3" x1="126.527" y1="246.005" x2="137.527" y2="251.005"/>
			<line fill="none" stroke="#FFFF00" stroke-width="3" x1="137.527" y1="251.005" x2="131.527" y2="272.005"/>
			<line fill="none" stroke="#FFFF00" stroke-width="3" x1="131.527" y1="272.005" x2="137.527" y2="277.005"/>
			<line fill="none" stroke="#FFFF00" stroke-width="3" x1="137.527" y1="277.005" x2="138.527" y2="300.005"/>
			<line fill="none" stroke="#FFFF00" stroke-width="3" x1="138.527" y1="300.005" x2="144.527" y2="271.005"/>
			<line fill="none" stroke="#FFFF00" stroke-width="3" x1="144.527" y1="271.005" x2="140.527" y2="267.005"/>
			<line fill="none" stroke="#FFFF00" stroke-width="3" x1="140.527" y1="267.005" x2="148.527" y2="244.005"/>
			<line fill="none" stroke="#FFFF00" stroke-width="3" x1="148.527" y1="244.005" x2="139.527" y2="243.005"/>
			<line fill="none" stroke="#FFFF00" stroke-width="3" x1="139.527" y1="243.005" x2="146.527" y2="215.005"/>
		</g>
	</g>
</g>
<g>
	<g id="XMLID_7_">
		<g>
			<polygon fill="#FFFF00" points="187.082,311.947 181.486,335.647 185.876,339.215 182.886,368.678 179.529,345.902 
				173.048,341.544 176.859,320.04 165.404,316.196 182.115,283.306 178.027,311.876 			"/>
		</g>
		<g>
			<line fill="none" stroke="#FFFF00" stroke-width="3" x1="182.115" y1="283.306" x2="165.404" y2="316.196"/>
			<line fill="none" stroke="#FFFF00" stroke-width="3" x1="165.404" y1="316.196" x2="176.859" y2="320.04"/>
			<line fill="none" stroke="#FFFF00" stroke-width="3" x1="176.859" y1="320.04" x2="173.048" y2="341.544"/>
			<line fill="none" stroke="#FFFF00" stroke-width="3" x1="173.048" y1="341.544" x2="179.529" y2="345.902"/>
			<line fill="none" stroke="#FFFF00" stroke-width="3" x1="179.529" y1="345.902" x2="182.886" y2="368.678"/>
			<line fill="none" stroke="#FFFF00" stroke-width="3" x1="182.886" y1="368.678" x2="185.876" y2="339.215"/>
			<line fill="none" stroke="#FFFF00" stroke-width="3" x1="185.876" y1="339.215" x2="181.486" y2="335.647"/>
			<line fill="none" stroke="#FFFF00" stroke-width="3" x1="181.486" y1="335.647" x2="187.082" y2="311.947"/>
			<line fill="none" stroke="#FFFF00" stroke-width="3" x1="187.082" y1="311.947" x2="178.027" y2="311.876"/>
			<line fill="none" stroke="#FFFF00" stroke-width="3" x1="178.027" y1="311.876" x2="182.115" y2="283.306"/>
		</g>
	</g>
</g>
<g>
	<g id="XMLID_8_">
		<g>
			<polygon fill="#FFFF00" points="127.787,169.568 114.973,190.275 118.007,195.049 105.839,222.048 109.869,199.382 
				105.101,193.196 115.527,174.005 105.879,166.731 132.146,140.828 119.221,166.632 			"/>
		</g>
		<g>
			<line fill="none" stroke="#FFFF00" stroke-width="3" x1="132.146" y1="140.828" x2="105.879" y2="166.731"/>
			<line fill="none" stroke="#FFFF00" stroke-width="3" x1="105.879" y1="166.731" x2="115.527" y2="174.005"/>
			<line fill="none" stroke="#FFFF00" stroke-width="3" x1="115.527" y1="174.005" x2="105.101" y2="193.196"/>
			<line fill="none" stroke="#FFFF00" stroke-width="3" x1="105.101" y1="193.196" x2="109.869" y2="199.382"/>
			<line fill="none" stroke="#FFFF00" stroke-width="3" x1="109.869" y1="199.382" x2="105.839" y2="222.048"/>
			<line fill="none" stroke="#FFFF00" stroke-width="3" x1="105.839" y1="222.048" x2="118.007" y2="195.049"/>
			<line fill="none" stroke="#FFFF00" stroke-width="3" x1="118.007" y1="195.049" x2="114.973" y2="190.275"/>
			<line fill="none" stroke="#FFFF00" stroke-width="3" x1="114.973" y1="190.275" x2="127.787" y2="169.568"/>
			<line fill="none" stroke="#FFFF00" stroke-width="3" x1="127.787" y1="169.568" x2="119.221" y2="166.632"/>
			<line fill="none" stroke="#FFFF00" stroke-width="3" x1="119.221" y1="166.632" x2="132.146" y2="140.828"/>
		</g>
	</g>
</g>
</svg>
